
<svg
   width="210mm"
   height="297mm"
   viewBox="0 0 210 297"
   version="1.1"
   id="svg1"
   xml:space="preserve"
   xmlns="http://www.w3.org/2000/svg"
   xmlns:svg="http://www.w3.org/2000/svg"><defs
     id="defs1" /><g
     id="layer1"><path
       style="fill:#3471b9;stroke:none"
       d="m 75.670835,72.343536 c -6.192475,0.81547 -12.074424,3.123808 -14.951,9.148133 -3.00685,6.29716 -1.982332,13.858972 -1.982332,20.637501 0,12.4505 -0.264583,24.85725 -0.264583,37.30625 0,6.54643 -0.491532,13.99174 3.569226,19.57916 5.000009,6.87978 12.856522,6.87917 20.507856,6.87917 11.023842,0 22.036158,0.26458 33.072918,0.26458 5.64091,0 11.61251,0.42226 17.19791,-0.37788 6.84718,-0.98092 12.32696,-5.13226 14.46104,-11.79295 1.85781,-5.79844 0.88479,-12.75473 0.88479,-18.78542 V 99.483334 c 0,-7.222459 0.72138,-14.443206 -3.71479,-20.637499 -4.40131,-6.145635 -11.93448,-6.614583 -18.77479,-6.614583 H 92.604168 c -5.525761,0 -11.455825,-0.609039 -16.933333,0.112284 M 102.927,85.314659 c 2.78811,-0.697115 3.9372,3.551704 1.05323,4.260269 -2.70679,0.665027 -3.66261,-3.607854 -1.05323,-4.260269 m 15.34175,40.097841 -7.06209,-12.96458 -8.01916,-14.022919 c -0.70764,2.236149 -2.24149,4.290609 -3.357918,6.349999 -3.627499,6.69136 -8.591949,13.48664 -11.194164,20.6375 1.289981,0.005 5.000082,1.66721 3.479188,3.54452 -0.503272,0.62121 -1.724095,0.42391 -2.420855,0.42423 -1.759695,7.9e-4 -5.439905,0.70808 -6.492707,-1.11489 -1.188615,-2.05812 2.128964,-6.12456 3.127433,-7.88094 4.032691,-7.09379 7.784513,-14.34553 11.831739,-21.431252 1.077526,-1.886497 2.713574,-7.350762 5.291054,-7.350762 2.44159,0 4.2459,5.530153 5.25573,7.350762 3.95424,7.129162 7.78088,14.334332 11.7907,21.431252 1.01223,1.79152 4.24817,5.78123 3.05537,7.90872 -1.01988,1.81907 -4.86153,1.09069 -6.60724,1.08711 -0.64371,-0.001 -1.69277,0.14787 -2.15626,-0.42423 -1.52089,-1.87731 2.18917,-3.53997 3.47918,-3.54452 m -22.754166,-5.55625 h 0.529167 l 7.143749,12.17083 c 1.53166,-1.80147 5.20984,-6.4652 5.21879,-8.88355 0.009,-2.46485 -3.66278,-7.27778 -5.21879,-9.10811 l -3.439583,6.35 c -3.990583,-3.06104 -1.589179,-5.73819 0.345433,-9.26042 0.75946,-1.3827 1.65906,-3.91979 3.61964,-3.63863 2.25632,0.32357 3.98536,5.26804 4.96972,7.07821 1.32505,2.43669 3.85193,5.42437 4.23701,8.20209 0.22391,1.61514 -0.79711,2.92346 -1.58301,4.23333 -1.52623,2.54379 -3.05256,5.09446 -4.51936,7.67292 -0.65552,1.1523 -1.32951,3.00752 -2.59622,3.60943 -2.26876,1.07807 -3.83179,-2.94429 -4.663487,-4.40318 -1.367439,-2.39866 -2.795105,-4.76841 -4.202707,-7.14375 -0.585631,-0.98825 -1.611246,-2.22545 -1.532787,-3.43959 0.07789,-1.2053 1.081531,-2.44142 1.692435,-3.43958 z"
       id="path1" /></g></svg>
